<svg width="657.9px" height="122px" xmlns="http://www.w3.org/2000/svg" viewBox="-78.94687499999998 14 657.89375 122" style="background: none" preserveAspectRatio="xMidYMid"><defs><filter id="editing-hole" x="-100%" y="-100%" width="300%" height="300%"><feFlood flood-color="none" result="black"></feFlood><feMorphology operator="dilate" radius="2" in="SourceGraphic" result="erode"></feMorphology><feGaussianBlur in="erode" stdDeviation="4" result="blur"></feGaussianBlur><feOffset in="blur" dx="2" dy="2" result="offset"></feOffset><feComposite operator="atop" in="offset" in2="black" result="merge"></feComposite><feComposite operator="in" in="merge" in2="SourceGraphic" result="inner-shadow"></feComposite></filter></defs><g filter="url(#editing-hole)"><g transform="matrix(1.4,0,0,1.8,-58.8,216.3)"><path d="M 4.1 -69.1 L -9.8 -69.1 L -1.7 -111.3 L 12.4 -111.3 L 4.1 -69.1 Z M 59.9 -67.8 L 59.9 -67.8 L 59.9 -67.8 Q 52.1 -67.8 52.1 -73.8 L 52.1 -73.8 L 52.1 -73.8 Q 52.1 -76.4 53.2 -81.5 L 53.2 -81.5 L 53.2 -81.5 Q 54.4 -86.6 54.7 -88.6 L 54.7 -88.6 L 54.7 -88.6 Q 55.6 -93.3 55.6 -94.8 L 55.6 -94.8 L 55.6 -94.8 Q 55.6 -98.1 53.2 -98.1 L 53.2 -98.1 L 53.2 -98.1 Q 51.6 -98.1 50.1 -95.8 L 50.1 -95.8 L 50.1 -95.8 Q 48.5 -93.6 47.8 -89.2 L 47.8 -89.2 L 43.9 -69.1 L 31.4 -67.8 L 34.8 -85.2 L 34.8 -85.2 Q 35.4 -88.1 35.9 -91.3 L 35.9 -91.3 L 35.9 -91.3 Q 36.4 -94.6 36.4 -95.1 L 36.4 -95.1 L 36.4 -95.1 Q 36.4 -98.1 34.3 -98.1 L 34.3 -98.1 L 34.3 -98.1 Q 32.8 -98.1 31.2 -95.9 L 31.2 -95.9 L 31.2 -95.9 Q 29.6 -93.7 28.7 -89.2 L 28.7 -89.2 L 24.8 -69.1 L 12.2 -67.8 L 18.9 -101.7 L 29.3 -103 L 28.2 -96.5 L 28.2 -96.5 Q 29.9 -100 33 -101.5 L 33 -101.5 L 33 -101.5 Q 36.1 -103 40.9 -103 L 40.9 -103 L 40.9 -103 Q 43.6 -103 45.4 -101.6 L 45.4 -101.6 L 45.4 -101.6 Q 47.2 -100.3 47.8 -98.1 L 47.8 -98.1 L 47.8 -98.1 Q 48.9 -100.4 51.6 -101.7 L 51.6 -101.7 L 51.6 -101.7 Q 54.4 -103 57.8 -103 L 57.8 -103 L 57.8 -103 Q 61.3 -103 63 -102.2 L 63 -102.2 L 63 -102.2 Q 64.7 -101.5 65.7 -100.3 L 65.7 -100.3 L 65.7 -100.3 Q 67.4 -98.1 67.4 -94 L 67.4 -94 L 67.4 -94 Q 67.4 -89.9 65.7 -81.5 L 65.7 -81.5 L 65.7 -81.5 Q 64.8 -77.4 64.8 -75.9 L 64.8 -75.9 L 64.8 -75.9 Q 64.8 -74.4 65.7 -73.5 L 65.7 -73.5 L 65.7 -73.5 Q 66.5 -72.6 67.8 -72.5 L 67.8 -72.5 L 67.8 -72.5 Q 67.2 -70.3 65 -69.1 L 65 -69.1 L 65 -69.1 Q 62.7 -67.8 59.9 -67.8 Z M 75.5 -71 L 75.5 -71 L 75.5 -71 Q 74 -72.6 73.3 -75.3 L 73.3 -75.3 L 73.3 -75.3 Q 72.7 -77.9 72.7 -82.2 L 72.7 -82.2 L 72.7 -82.2 Q 72.7 -86.5 74.1 -90.4 L 74.1 -90.4 L 74.1 -90.4 Q 75.6 -94.3 78.3 -97.1 L 78.3 -97.1 L 78.3 -97.1 Q 83.8 -103 92.9 -103 L 92.9 -103 L 92.9 -103 Q 96.2 -103 98.5 -101.9 L 98.5 -101.9 L 109.5 -103 L 104.7 -78 L 104.7 -78 Q 104.5 -77.3 104.5 -75.8 L 104.5 -75.8 L 104.5 -75.8 Q 104.5 -74.4 105.4 -73.5 L 105.4 -73.5 L 105.4 -73.5 Q 106.3 -72.6 107.5 -72.5 L 107.5 -72.5 L 107.5 -72.5 Q 106.9 -70.3 104.6 -69.1 L 104.6 -69.1 L 104.6 -69.1 Q 102.2 -67.8 99.6 -67.8 L 99.6 -67.8 L 99.6 -67.8 Q 97 -67.8 95.2 -68.8 L 95.2 -68.8 L 95.2 -68.8 Q 93.5 -69.8 93 -71.4 L 93 -71.4 L 93 -71.4 Q 91.9 -69.8 89.8 -68.8 L 89.8 -68.8 L 89.8 -68.8 Q 87.6 -67.8 84.7 -67.8 L 84.7 -67.8 L 84.7 -67.8 Q 81.8 -67.8 79.4 -68.6 L 79.4 -68.6 L 79.4 -68.6 Q 77 -69.3 75.5 -71 Z M 89 -97 L 89 -97 L 89 -97 Q 88.3 -95.8 87.6 -93.9 L 87.6 -93.9 L 87.6 -93.9 Q 87 -91.9 85.9 -86.7 L 85.9 -86.7 L 85.9 -86.7 Q 84.9 -81.5 84.9 -77.8 L 84.9 -77.8 L 84.9 -77.8 Q 84.9 -74.1 85.5 -73 L 85.5 -73 L 85.5 -73 Q 86 -71.9 87.1 -71.9 L 87.1 -71.9 L 87.1 -71.9 Q 89.1 -71.9 90.6 -73.8 L 90.6 -73.8 L 90.6 -73.8 Q 92.1 -75.8 92.7 -79.2 L 92.7 -79.2 L 96.1 -98 L 96.1 -98 Q 94.7 -99.1 93.2 -99.1 L 93.2 -99.1 L 93.2 -99.1 Q 91.6 -99.1 90.7 -98.6 L 90.7 -98.6 L 90.7 -98.6 Q 89.8 -98.1 89 -97 Z M 117.2 -95.8 L 117.2 -95.8 L 117.2 -95.8 Q 119.4 -98.9 122.7 -100.9 L 122.7 -100.9 L 122.7 -100.9 Q 126 -103 130 -103 L 130 -103 L 130 -103 Q 134 -103 136 -101.7 L 136 -101.7 L 148.5 -103 L 144.2 -78.4 L 144.2 -78.4 Q 141.9 -65.9 137.2 -60.9 L 137.2 -60.9 L 137.2 -60.9 Q 132.6 -56.3 123.8 -56.3 L 123.8 -56.3 L 123.8 -56.3 Q 117.1 -56.3 113.2 -58.4 L 113.2 -58.4 L 113.2 -58.4 Q 109.4 -60.5 109.4 -64 L 109.4 -64 L 109.4 -64 Q 109.4 -66.6 111.4 -68.1 L 111.4 -68.1 L 111.4 -68.1 Q 113.4 -69.6 116.4 -69.6 L 116.4 -69.6 L 116.4 -69.6 Q 119.1 -69.6 121.2 -68.4 L 121.2 -68.4 L 121.2 -68.4 Q 122.4 -67.8 123 -66.9 L 123 -66.9 L 123 -66.9 Q 121.5 -65.6 121.5 -63.5 L 121.5 -63.5 L 121.5 -63.5 Q 121.5 -60.7 124.1 -60.7 L 124.1 -60.7 L 124.1 -60.7 Q 128.3 -60.7 130.8 -70.9 L 130.8 -70.9 L 130.8 -70.9 Q 131.5 -73.6 132.1 -76.4 L 132.1 -76.4 L 132.1 -76.4 Q 129.2 -72.8 122.6 -72.8 L 122.6 -72.8 L 122.6 -72.8 Q 118.1 -72.8 115.5 -75 L 115.5 -75 L 115.5 -75 Q 112.9 -77.2 112.9 -82.3 L 112.9 -82.3 L 112.9 -82.3 Q 112.9 -85.5 113.9 -89.1 L 113.9 -89.1 L 113.9 -89.1 Q 115 -92.7 117.2 -95.8 Z M 125.5 -82.1 L 125.5 -82.1 L 125.5 -82.1 Q 125.5 -77.8 127.8 -77.8 L 127.8 -77.8 L 127.8 -77.8 Q 129.3 -77.8 130.8 -79.4 L 130.8 -79.4 L 130.8 -79.4 Q 131.9 -80.8 132.4 -82.8 L 132.4 -82.8 L 135.6 -99.2 L 135.6 -99.2 Q 135.3 -99.3 135 -99.4 L 135 -99.4 L 135 -99.4 Q 134.4 -99.7 133.5 -99.7 L 133.5 -99.7 L 133.5 -99.7 Q 129.6 -99.7 127.3 -93.3 L 127.3 -93.3 L 127.3 -93.3 Q 125.5 -88.3 125.5 -82.1 Z M 176.9 -79.9 L 176.9 -79.9 L 176.9 -79.9 Q 178.5 -78.8 178.5 -76.4 L 178.5 -76.4 L 178.5 -76.4 Q 178.5 -74 177.3 -72.5 L 177.3 -72.5 L 177.3 -72.5 Q 176.1 -70.9 174.1 -69.9 L 174.1 -69.9 L 174.1 -69.9 Q 170 -67.8 165.6 -67.8 L 165.6 -67.8 L 165.6 -67.8 Q 161.2 -67.8 158.6 -68.7 L 158.6 -68.7 L 158.6 -68.7 Q 156 -69.7 154.3 -71.5 L 154.3 -71.5 L 154.3 -71.5 Q 150.9 -74.9 150.9 -81.1 L 150.9 -81.1 L 150.9 -81.1 Q 150.9 -90.8 156.1 -96.6 L 156.1 -96.6 L 156.1 -96.6 Q 161.8 -103 171.5 -103 L 171.5 -103 L 171.5 -103 Q 177.6 -103 180.6 -100.4 L 180.6 -100.4 L 180.6 -100.4 Q 182.9 -98.5 182.9 -95.4 L 182.9 -95.4 L 182.9 -95.4 Q 182.9 -84.1 163.4 -84.1 L 163.4 -84.1 L 163.4 -84.1 Q 163.2 -82.4 163.2 -81 L 163.2 -81 L 163.2 -81 Q 163.2 -78.1 164.5 -77 L 164.5 -77 L 164.5 -77 Q 165.8 -75.8 168.2 -75.8 L 168.2 -75.8 L 168.2 -75.8 Q 170.6 -75.8 173.2 -77 L 173.2 -77 L 173.2 -77 Q 175.8 -78.1 176.9 -79.9 Z M 163.9 -86.9 L 163.9 -86.9 L 163.9 -86.9 Q 168.4 -86.9 171 -89.7 L 171 -89.7 L 171 -89.7 Q 173.7 -92.4 173.7 -96.6 L 173.7 -96.6 L 173.7 -96.6 Q 173.7 -98.1 173.1 -98.9 L 173.1 -98.9 L 173.1 -98.9 Q 172.6 -99.7 171.5 -99.7 L 171.5 -99.7 L 171.5 -99.7 Q 170.4 -99.7 169.5 -99.3 L 169.5 -99.3 L 169.5 -99.3 Q 168.5 -98.9 167.6 -97.5 L 167.6 -97.5 L 167.6 -97.5 Q 165.2 -94.3 163.9 -86.9 Z M 204.2 -91.5 L 204.2 -91.5 L 204.2 -91.5 Q 205.1 -93.9 205.1 -95.9 L 205.1 -95.9 L 205.1 -95.9 Q 205.1 -99.7 202 -99.7 L 202 -99.7 L 202 -99.7 Q 200.4 -99.7 199.1 -98.3 L 199.1 -98.3 L 199.1 -98.3 Q 197.8 -96.8 197.8 -95 L 197.8 -95 L 197.8 -95 Q 197.8 -93.8 198.8 -92.7 L 198.8 -92.7 L 198.8 -92.7 Q 200.3 -91.3 204.1 -89 L 204.1 -89 L 204.1 -89 Q 207.8 -86.7 209.3 -84.8 L 209.3 -84.8 L 209.3 -84.8 Q 210.7 -83 210.7 -80.4 L 210.7 -80.4 L 210.7 -80.4 Q 210.7 -77.8 209.5 -75.4 L 209.5 -75.4 L 209.5 -75.4 Q 208.2 -73 206 -71.4 L 206 -71.4 L 206 -71.4 Q 201.2 -67.8 193.5 -67.8 L 193.5 -67.8 L 193.5 -67.8 Q 189.3 -67.8 186.1 -70 L 186.1 -70 L 186.1 -70 Q 182.9 -72.1 182.9 -74.6 L 182.9 -74.6 L 182.9 -74.6 Q 182.9 -77.1 184.8 -78.5 L 184.8 -78.5 L 184.8 -78.5 Q 186.6 -80 189.3 -80 L 189.3 -80 L 189.3 -80 Q 192 -80 193.6 -79 L 193.6 -79 L 193.6 -79 Q 192.8 -76.9 192.8 -75.5 L 192.8 -75.5 L 192.8 -75.5 Q 192.8 -71.2 196.4 -71.2 L 196.4 -71.2 L 196.4 -71.2 Q 197.9 -71.2 198.9 -72.2 L 198.9 -72.2 L 198.9 -72.2 Q 200 -73.2 200 -74.8 L 200 -74.8 L 200 -74.8 Q 200 -78.1 194.5 -81.5 L 194.5 -81.5 L 194.5 -81.5 Q 190 -84.5 189 -85.6 L 189 -85.6 L 189 -85.6 Q 187.2 -87.7 187.2 -90.2 L 187.2 -90.2 L 187.2 -90.2 Q 187.2 -92.8 188.4 -95.2 L 188.4 -95.2 L 188.4 -95.2 Q 189.7 -97.7 191.9 -99.4 L 191.9 -99.4 L 191.9 -99.4 Q 196.6 -103 204.7 -103 L 204.7 -103 L 204.7 -103 Q 208.9 -103 211.3 -101.3 L 211.3 -101.3 L 211.3 -101.3 Q 213.8 -99.7 213.8 -96.8 L 213.8 -96.8 L 213.8 -96.8 Q 213.8 -94 212.1 -92.4 L 212.1 -92.4 L 212.1 -92.4 Q 210.4 -90.8 207.3 -90.8 L 207.3 -90.8 L 207.3 -90.8 Q 205.2 -90.8 204.2 -91.5 Z M 255.3 -89.7 L 268.2 -90.8 L 268.2 -90.8 Q 263.6 -80.7 263.6 -69 L 263.6 -69 L 263.6 -69 Q 261.8 -67.8 259.3 -67.8 L 259.3 -67.8 L 259.3 -67.8 Q 256.8 -67.8 255.2 -69 L 255.2 -69 L 255.2 -69 Q 253.6 -70.2 253.3 -71.4 L 253.3 -71.4 L 253.3 -71.4 Q 251.7 -69.7 249.1 -68.7 L 249.1 -68.7 L 249.1 -68.7 Q 246.5 -67.8 243.7 -67.8 L 243.7 -67.8 L 243.7 -67.8 Q 241 -67.8 238.6 -68.7 L 238.6 -68.7 L 238.6 -68.7 Q 236.2 -69.6 234.3 -71.6 L 234.3 -71.6 L 234.3 -71.6 Q 230.2 -75.9 230.2 -84.2 L 230.2 -84.2 L 230.2 -84.2 Q 230.2 -97 237.1 -104.6 L 237.1 -104.6 L 237.1 -104.6 Q 244.1 -112.6 256.6 -112.6 L 256.6 -112.6 L 256.6 -112.6 Q 265.2 -112.6 268.3 -108.1 L 268.3 -108.1 L 268.3 -108.1 Q 269.3 -106.7 269.3 -105 L 269.3 -105 L 269.3 -105 Q 269.3 -103.3 268.5 -101.9 L 268.5 -101.9 L 268.5 -101.9 Q 267.8 -100.4 266.6 -99.3 L 266.6 -99.3 L 266.6 -99.3 Q 263.9 -96.7 260.5 -96.7 L 260.5 -96.7 L 260.5 -96.7 Q 259.2 -96.7 257.9 -97.2 L 257.9 -97.2 L 257.9 -97.2 Q 258.1 -99.1 258.1 -101.3 L 258.1 -101.3 L 258.1 -101.3 Q 258.1 -103.6 258 -104.6 L 258 -104.6 L 258 -104.6 Q 257.8 -105.6 257.4 -106.4 L 257.4 -106.4 L 257.4 -106.4 Q 256.6 -108.2 254.8 -108.2 L 254.8 -108.2 L 254.8 -108.2 Q 253 -108.2 250.9 -106.2 L 250.9 -106.2 L 250.9 -106.2 Q 248.9 -104.3 247.3 -101.1 L 247.3 -101.1 L 247.3 -101.1 Q 243.8 -93.9 243.8 -85.3 L 243.8 -85.3 L 243.8 -85.3 Q 243.8 -81.3 245.3 -78.5 L 245.3 -78.5 L 245.3 -78.5 Q 247 -75.4 249.9 -75.4 L 249.9 -75.4 L 249.9 -75.4 Q 251 -75.4 251.9 -75.9 L 251.9 -75.9 L 251.9 -75.9 Q 252.8 -76.4 253.2 -76.8 L 253.2 -76.8 L 255.3 -89.7 Z M 274.1 -71 L 274.1 -71 L 274.1 -71 Q 272.6 -72.6 271.9 -75.3 L 271.9 -75.3 L 271.9 -75.3 Q 271.3 -77.9 271.3 -82.2 L 271.3 -82.2 L 271.3 -82.2 Q 271.3 -86.5 272.7 -90.4 L 272.7 -90.4 L 272.7 -90.4 Q 274.2 -94.3 276.9 -97.1 L 276.9 -97.1 L 276.9 -97.1 Q 282.4 -103 291.5 -103 L 291.5 -103 L 291.5 -103 Q 294.7 -103 297.1 -101.9 L 297.1 -101.9 L 308.1 -103 L 303.3 -78 L 303.3 -78 Q 303.1 -77.3 303.1 -75.8 L 303.1 -75.8 L 303.1 -75.8 Q 303.1 -74.4 304 -73.5 L 304 -73.5 L 304 -73.5 Q 304.9 -72.6 306.1 -72.5 L 306.1 -72.5 L 306.1 -72.5 Q 305.5 -70.3 303.2 -69.1 L 303.2 -69.1 L 303.2 -69.1 Q 300.8 -67.8 298.2 -67.8 L 298.2 -67.8 L 298.2 -67.8 Q 295.6 -67.8 293.8 -68.8 L 293.8 -68.8 L 293.8 -68.8 Q 292.1 -69.8 291.5 -71.4 L 291.5 -71.4 L 291.5 -71.4 Q 290.5 -69.8 288.3 -68.8 L 288.3 -68.8 L 288.3 -68.8 Q 286.2 -67.8 283.3 -67.8 L 283.3 -67.8 L 283.3 -67.8 Q 280.3 -67.8 278 -68.6 L 278 -68.6 L 278 -68.6 Q 275.6 -69.3 274.1 -71 Z M 287.6 -97 L 287.6 -97 L 287.6 -97 Q 286.9 -95.8 286.2 -93.9 L 286.2 -93.9 L 286.2 -93.9 Q 285.6 -91.9 284.5 -86.7 L 284.5 -86.7 L 284.5 -86.7 Q 283.5 -81.5 283.5 -77.8 L 283.5 -77.8 L 283.5 -77.8 Q 283.5 -74.1 284.1 -73 L 284.1 -73 L 284.1 -73 Q 284.6 -71.9 285.7 -71.9 L 285.7 -71.9 L 285.7 -71.9 Q 287.7 -71.9 289.2 -73.8 L 289.2 -73.8 L 289.2 -73.8 Q 290.7 -75.8 291.3 -79.2 L 291.3 -79.2 L 294.7 -98 L 294.7 -98 Q 293.3 -99.1 291.8 -99.1 L 291.8 -99.1 L 291.8 -99.1 Q 290.2 -99.1 289.3 -98.6 L 289.3 -98.6 L 289.3 -98.6 Q 288.3 -98.1 287.6 -97 Z M 326.8 -72.6 L 326.8 -72.6 L 326.8 -72.6 Q 324.8 -67.8 318.5 -67.8 L 318.5 -67.8 L 318.5 -67.8 Q 315.3 -67.8 313.2 -70 L 313.2 -70 L 313.2 -70 Q 311.6 -71.9 311.6 -74 L 311.6 -74 L 311.6 -74 Q 311.6 -78.8 313.8 -89.3 L 313.8 -89.3 L 318.5 -113.9 L 331.5 -115.1 L 325.3 -82.8 L 325.3 -82.8 Q 324.2 -78 324.2 -76.4 L 324.2 -76.4 L 324.2 -76.4 Q 324.2 -72.7 326.8 -72.6 Z M 347.5 -72.6 L 347.5 -72.6 L 347.5 -72.6 Q 345.6 -67.8 339.2 -67.8 L 339.2 -67.8 L 339.2 -67.8 Q 336 -67.8 334 -70 L 334 -70 L 334 -70 Q 332.3 -71.9 332.3 -74 L 332.3 -74 L 332.3 -74 Q 332.3 -78.8 334.6 -89.3 L 334.6 -89.3 L 339.2 -113.9 L 352.2 -115.1 L 346 -82.8 L 346 -82.8 Q 344.9 -78 344.9 -76.4 L 344.9 -76.4 L 344.9 -76.4 Q 344.9 -72.7 347.5 -72.6 Z M 378.9 -79.9 L 378.9 -79.9 L 378.9 -79.9 Q 380.5 -78.8 380.5 -76.4 L 380.5 -76.4 L 380.5 -76.4 Q 380.5 -74 379.3 -72.5 L 379.3 -72.5 L 379.3 -72.5 Q 378.1 -70.9 376.1 -69.9 L 376.1 -69.9 L 376.1 -69.9 Q 372 -67.8 367.6 -67.8 L 367.6 -67.8 L 367.6 -67.8 Q 363.2 -67.8 360.6 -68.7 L 360.6 -68.7 L 360.6 -68.7 Q 358 -69.7 356.2 -71.5 L 356.2 -71.5 L 356.2 -71.5 Q 352.9 -74.9 352.9 -81.1 L 352.9 -81.1 L 352.9 -81.1 Q 352.9 -90.8 358.1 -96.6 L 358.1 -96.6 L 358.1 -96.6 Q 363.7 -103 373.5 -103 L 373.5 -103 L 373.5 -103 Q 379.6 -103 382.6 -100.4 L 382.6 -100.4 L 382.6 -100.4 Q 384.9 -98.5 384.9 -95.4 L 384.9 -95.4 L 384.9 -95.4 Q 384.9 -84.1 365.4 -84.1 L 365.4 -84.1 L 365.4 -84.1 Q 365.1 -82.4 365.1 -81 L 365.1 -81 L 365.1 -81 Q 365.1 -78.1 366.5 -77 L 366.5 -77 L 366.5 -77 Q 367.8 -75.8 370.2 -75.8 L 370.2 -75.8 L 370.2 -75.8 Q 372.6 -75.8 375.2 -77 L 375.2 -77 L 375.2 -77 Q 377.8 -78.1 378.9 -79.9 Z M 365.8 -86.9 L 365.8 -86.9 L 365.8 -86.9 Q 370.4 -86.9 373 -89.7 L 373 -89.7 L 373 -89.7 Q 375.6 -92.4 375.6 -96.6 L 375.6 -96.6 L 375.6 -96.6 Q 375.6 -98.1 375.1 -98.9 L 375.1 -98.9 L 375.1 -98.9 Q 374.6 -99.7 373.5 -99.7 L 373.5 -99.7 L 373.5 -99.7 Q 372.4 -99.7 371.4 -99.3 L 371.4 -99.3 L 371.4 -99.3 Q 370.5 -98.9 369.6 -97.5 L 369.6 -97.5 L 369.6 -97.5 Q 367.2 -94.3 365.8 -86.9 Z M 407.1 -87 L 407.1 -87 L 407.1 -87 Q 409.4 -91.1 409.4 -95.3 L 409.4 -95.3 L 409.4 -95.3 Q 409.4 -98.1 407.4 -98.1 L 407.4 -98.1 L 407.4 -98.1 Q 405.8 -98.1 404.2 -95.4 L 404.2 -95.4 L 404.2 -95.4 Q 402.6 -92.8 402.1 -89.4 L 402.1 -89.4 L 398.7 -69.1 L 385.5 -67.8 L 392 -101.7 L 402.6 -103 L 401.4 -96.5 L 401.4 -96.5 Q 404.6 -103 411.6 -103 L 411.6 -103 L 411.6 -103 Q 415.3 -103 417.3 -101.1 L 417.3 -101.1 L 417.3 -101.1 Q 419.4 -99.1 419.4 -95.2 L 419.4 -95.2 L 419.4 -95.2 Q 419.4 -91.3 416.8 -88.8 L 416.8 -88.8 L 416.8 -88.8 Q 414.2 -86.3 409.8 -86.3 L 409.8 -86.3 L 409.8 -86.3 Q 407.8 -86.3 407.1 -87 Z M 440.7 -76.3 L 440.7 -76.3 L 440.7 -76.3 Q 437.4 -72.8 431.3 -72.8 L 431.3 -72.8 L 431.3 -72.8 Q 423.7 -72.8 422.1 -78.4 L 422.1 -78.4 L 422.1 -78.4 Q 421.6 -80.1 421.6 -81.9 L 421.6 -81.9 L 421.6 -81.9 Q 421.6 -83.8 422 -85.7 L 422 -85.7 L 425 -101.7 L 438 -103 L 434.5 -84.4 L 434.5 -84.4 Q 434.3 -83.5 434.1 -82.6 L 434.1 -82.6 L 434.1 -82.6 Q 433.9 -81.7 433.9 -80.8 L 433.9 -80.8 L 433.9 -80.8 Q 433.9 -79.9 434.3 -79.3 L 434.3 -79.3 L 434.3 -79.3 Q 434.6 -78.7 435 -78.3 L 435 -78.3 L 435 -78.3 Q 435.8 -77.8 437.2 -77.8 L 437.2 -77.8 L 437.2 -77.8 Q 438.6 -77.8 439.7 -79.4 L 439.7 -79.4 L 439.7 -79.4 Q 440.9 -81.1 441.5 -84 L 441.5 -84 L 445 -101.7 L 457.6 -103 L 452.8 -77.8 L 452.8 -77.8 Q 450.5 -65.5 445.6 -60.7 L 445.6 -60.7 L 445.6 -60.7 Q 443.1 -58.2 439.9 -57.2 L 439.9 -57.2 L 439.9 -57.2 Q 436.6 -56.2 432.5 -56.2 L 432.5 -56.2 L 432.5 -56.2 Q 425.8 -56.2 421.9 -58.3 L 421.9 -58.3 L 421.9 -58.3 Q 418.1 -60.4 418.1 -63.9 L 418.1 -63.9 L 418.1 -63.9 Q 418.1 -66.6 420.1 -68.1 L 420.1 -68.1 L 420.1 -68.1 Q 422 -69.6 425.1 -69.6 L 425.1 -69.6 L 425.1 -69.6 Q 427.8 -69.6 429.8 -68.4 L 429.8 -68.4 L 429.8 -68.4 Q 431.1 -67.7 431.6 -66.8 L 431.6 -66.8 L 431.6 -66.8 Q 430.2 -65.5 430.2 -63.4 L 430.2 -63.4 L 430.2 -63.4 Q 430.2 -60.6 432.7 -60.6 L 432.7 -60.6 L 432.7 -60.6 Q 437 -60.6 439.4 -70.3 L 439.4 -70.3 L 439.4 -70.3 Q 440.1 -73.2 440.7 -76.3 Z" fill="#bc2412"></path></g></g><style>text {
  font-size: 64px;
  font-family: Arial Black;
  dominant-baseline: central;
  text-anchor: middle;
}</style></svg>